<?xml version="1.0" encoding="UTF-8"?>
<svg xmlns="http://www.w3.org/2000/svg" xmlns:xlink="http://www.w3.org/1999/xlink" width="1280" height="720" viewBox="0 0 1280 720">
<defs>
<g>
<g id="glyph-0-0">
<path d="M 5.433594 -4.488281 L 5.136719 -4.488281 C 5.109375 -4.59375 5.0625 -4.714844 4.992188 -4.859375 C 4.925781 -5.003906 4.847656 -5.136719 4.765625 -5.265625 C 4.679688 -5.398438 4.582031 -5.515625 4.480469 -5.613281 C 4.378906 -5.714844 4.277344 -5.769531 4.183594 -5.785156 C 4.09375 -5.796875 3.980469 -5.804688 3.84375 -5.8125 C 3.707031 -5.816406 3.582031 -5.820312 3.464844 -5.820312 L 3.210938 -5.820312 L 3.210938 -0.894531 C 3.210938 -0.796875 3.230469 -0.710938 3.273438 -0.632812 C 3.3125 -0.550781 3.382812 -0.492188 3.484375 -0.445312 C 3.539062 -0.425781 3.648438 -0.398438 3.8125 -0.363281 C 3.980469 -0.328125 4.109375 -0.3125 4.203125 -0.308594 L 4.203125 0 L 1.292969 0 L 1.292969 -0.308594 C 1.375 -0.3125 1.5 -0.324219 1.664062 -0.34375 C 1.832031 -0.359375 1.945312 -0.382812 2.007812 -0.40625 C 2.105469 -0.445312 2.175781 -0.5 2.21875 -0.570312 C 2.265625 -0.640625 2.289062 -0.738281 2.289062 -0.855469 L 2.289062 -5.820312 L 2.035156 -5.820312 C 1.945312 -5.820312 1.835938 -5.820312 1.703125 -5.8125 C 1.570312 -5.808594 1.441406 -5.800781 1.320312 -5.785156 C 1.222656 -5.773438 1.125 -5.71875 1.023438 -5.613281 C 0.917969 -5.511719 0.824219 -5.394531 0.738281 -5.265625 C 0.652344 -5.136719 0.574219 -4.996094 0.507812 -4.851562 C 0.441406 -4.703125 0.394531 -4.582031 0.367188 -4.488281 L 0.0664062 -4.488281 L 0.0664062 -6.160156 L 5.433594 -6.160156 Z "/>
</g>
<g id="glyph-0-1">
<path d="M 2.386719 0 L 0.320312 0 L 0.320312 -0.285156 C 0.386719 -0.292969 0.457031 -0.296875 0.527344 -0.304688 C 0.597656 -0.308594 0.660156 -0.320312 0.710938 -0.339844 C 0.792969 -0.363281 0.851562 -0.410156 0.890625 -0.476562 C 0.929688 -0.539062 0.949219 -0.625 0.949219 -0.730469 L 0.949219 -3.367188 C 0.949219 -3.460938 0.929688 -3.546875 0.886719 -3.621094 C 0.84375 -3.699219 0.785156 -3.761719 0.710938 -3.816406 C 0.65625 -3.851562 0.578125 -3.878906 0.472656 -3.90625 C 0.367188 -3.929688 0.273438 -3.945312 0.1875 -3.949219 L 0.1875 -4.234375 L 1.695312 -4.332031 L 1.757812 -4.269531 L 1.757812 -0.78125 C 1.757812 -0.679688 1.777344 -0.597656 1.816406 -0.53125 C 1.855469 -0.464844 1.914062 -0.414062 2 -0.382812 C 2.0625 -0.355469 2.125 -0.335938 2.183594 -0.320312 C 2.246094 -0.304688 2.3125 -0.292969 2.386719 -0.285156 L 2.386719 0 M 1.84375 -6.019531 C 1.84375 -5.855469 1.789062 -5.710938 1.683594 -5.589844 C 1.574219 -5.464844 1.441406 -5.402344 1.28125 -5.402344 C 1.132812 -5.402344 1.003906 -5.460938 0.894531 -5.578125 C 0.789062 -5.695312 0.734375 -5.832031 0.734375 -5.980469 C 0.734375 -6.140625 0.789062 -6.277344 0.894531 -6.398438 C 1.003906 -6.515625 1.132812 -6.574219 1.28125 -6.574219 C 1.445312 -6.574219 1.582031 -6.519531 1.6875 -6.410156 C 1.792969 -6.296875 1.84375 -6.167969 1.84375 -6.019531 Z "/>
</g>
<g id="glyph-0-2">
<path d="M 7.636719 0 L 5.550781 0 L 5.550781 -0.285156 C 5.617188 -0.292969 5.683594 -0.296875 5.753906 -0.304688 C 5.820312 -0.308594 5.882812 -0.320312 5.933594 -0.339844 C 6.015625 -0.363281 6.074219 -0.410156 6.113281 -0.476562 C 6.152344 -0.539062 6.171875 -0.625 6.171875 -0.730469 L 6.171875 -2.9375 C 6.171875 -3.238281 6.101562 -3.472656 5.964844 -3.636719 C 5.828125 -3.796875 5.65625 -3.878906 5.453125 -3.878906 C 5.308594 -3.878906 5.175781 -3.859375 5.050781 -3.816406 C 4.929688 -3.773438 4.8125 -3.710938 4.710938 -3.632812 C 4.625 -3.570312 4.554688 -3.5 4.5 -3.425781 C 4.441406 -3.351562 4.398438 -3.292969 4.371094 -3.242188 L 4.371094 -0.773438 C 4.371094 -0.671875 4.386719 -0.589844 4.421875 -0.523438 C 4.457031 -0.457031 4.515625 -0.40625 4.601562 -0.375 C 4.667969 -0.347656 4.726562 -0.328125 4.78125 -0.316406 C 4.835938 -0.300781 4.90625 -0.292969 4.992188 -0.285156 L 4.992188 0 L 2.953125 0 L 2.953125 -0.285156 C 3.019531 -0.292969 3.082031 -0.296875 3.144531 -0.304688 C 3.207031 -0.308594 3.265625 -0.320312 3.316406 -0.339844 C 3.398438 -0.363281 3.457031 -0.410156 3.496094 -0.476562 C 3.535156 -0.539062 3.554688 -0.625 3.554688 -0.730469 L 3.554688 -2.9375 C 3.554688 -3.238281 3.484375 -3.472656 3.347656 -3.636719 C 3.210938 -3.796875 3.039062 -3.878906 2.832031 -3.878906 C 2.691406 -3.878906 2.558594 -3.859375 2.433594 -3.8125 C 2.308594 -3.769531 2.191406 -3.707031 2.089844 -3.628906 C 2.003906 -3.566406 1.933594 -3.492188 1.875 -3.414062 C 1.816406 -3.335938 1.773438 -3.273438 1.746094 -3.234375 L 1.746094 -0.78125 C 1.746094 -0.683594 1.765625 -0.601562 1.804688 -0.535156 C 1.847656 -0.46875 1.90625 -0.417969 1.988281 -0.382812 C 2.046875 -0.351562 2.109375 -0.332031 2.175781 -0.316406 C 2.238281 -0.300781 2.308594 -0.292969 2.386719 -0.285156 L 2.386719 0 L 0.308594 0 L 0.308594 -0.285156 C 0.375 -0.292969 0.445312 -0.296875 0.515625 -0.304688 C 0.585938 -0.308594 0.648438 -0.320312 0.699219 -0.339844 C 0.78125 -0.363281 0.839844 -0.410156 0.878906 -0.476562 C 0.917969 -0.539062 0.9375 -0.625 0.9375 -0.730469 L 0.9375 -3.386719 C 0.9375 -3.480469 0.917969 -3.5625 0.875 -3.636719 C 0.832031 -3.710938 0.773438 -3.773438 0.699219 -3.824219 C 0.644531 -3.859375 0.574219 -3.886719 0.496094 -3.910156 C 0.414062 -3.929688 0.328125 -3.945312 0.242188 -3.949219 L 0.242188 -4.234375 L 1.675781 -4.332031 L 1.734375 -4.269531 L 1.734375 -3.660156 L 1.765625 -3.660156 C 1.839844 -3.730469 1.925781 -3.816406 2.03125 -3.914062 C 2.136719 -4.011719 2.234375 -4.09375 2.320312 -4.152344 C 2.421875 -4.222656 2.550781 -4.28125 2.703125 -4.328125 C 2.855469 -4.375 3.019531 -4.398438 3.195312 -4.398438 C 3.472656 -4.398438 3.710938 -4.324219 3.910156 -4.171875 C 4.109375 -4.023438 4.253906 -3.84375 4.339844 -3.632812 C 4.445312 -3.734375 4.535156 -3.824219 4.617188 -3.898438 C 4.695312 -3.976562 4.800781 -4.058594 4.929688 -4.144531 C 5.039062 -4.21875 5.167969 -4.28125 5.316406 -4.328125 C 5.464844 -4.375 5.632812 -4.398438 5.8125 -4.398438 C 6.175781 -4.398438 6.460938 -4.277344 6.671875 -4.039062 C 6.882812 -3.804688 6.988281 -3.4375 6.988281 -2.945312 L 6.988281 -0.773438 C 6.988281 -0.671875 7.003906 -0.589844 7.039062 -0.523438 C 7.074219 -0.457031 7.132812 -0.40625 7.21875 -0.375 C 7.285156 -0.347656 7.351562 -0.328125 7.414062 -0.316406 C 7.480469 -0.300781 7.554688 -0.292969 7.636719 -0.285156 Z "/>
</g>
<g id="glyph-0-3">
<path d="M 4.113281 -1.007812 C 3.933594 -0.664062 3.695312 -0.394531 3.394531 -0.191406 C 3.09375 0.0117188 2.746094 0.113281 2.355469 0.113281 C 2.011719 0.113281 1.710938 0.0507812 1.453125 -0.0703125 C 1.191406 -0.191406 0.980469 -0.355469 0.8125 -0.5625 C 0.644531 -0.773438 0.519531 -1.015625 0.4375 -1.292969 C 0.355469 -1.570312 0.3125 -1.863281 0.3125 -2.175781 C 0.3125 -2.453125 0.355469 -2.726562 0.445312 -2.992188 C 0.53125 -3.261719 0.664062 -3.5 0.832031 -3.714844 C 1 -3.921875 1.203125 -4.085938 1.449219 -4.210938 C 1.691406 -4.339844 1.964844 -4.402344 2.269531 -4.402344 C 2.582031 -4.402344 2.851562 -4.351562 3.074219 -4.253906 C 3.296875 -4.15625 3.476562 -4.019531 3.617188 -3.851562 C 3.75 -3.6875 3.847656 -3.496094 3.914062 -3.277344 C 3.976562 -3.058594 4.011719 -2.820312 4.011719 -2.5625 L 4.011719 -2.273438 L 1.175781 -2.273438 C 1.175781 -1.992188 1.203125 -1.738281 1.257812 -1.507812 C 1.308594 -1.28125 1.394531 -1.078125 1.511719 -0.902344 C 1.625 -0.734375 1.769531 -0.601562 1.953125 -0.507812 C 2.136719 -0.410156 2.351562 -0.359375 2.605469 -0.359375 C 2.863281 -0.359375 3.082031 -0.421875 3.269531 -0.542969 C 3.457031 -0.660156 3.636719 -0.878906 3.8125 -1.195312 L 4.113281 -1.007812 M 3.15625 -2.640625 C 3.15625 -2.800781 3.140625 -2.972656 3.113281 -3.160156 C 3.085938 -3.34375 3.042969 -3.496094 2.980469 -3.621094 C 2.914062 -3.753906 2.824219 -3.863281 2.707031 -3.945312 C 2.59375 -4.03125 2.445312 -4.070312 2.261719 -4.070312 C 1.957031 -4.070312 1.707031 -3.945312 1.503906 -3.691406 C 1.304688 -3.441406 1.195312 -3.089844 1.175781 -2.640625 Z "/>
</g>
</g>
</defs>
<g fill="rgb(100%, 100%, 100%)" fill-opacity="1">
<use xlink:href="#glyph-0-0" x="30" y="28.150391"/>
<use xlink:href="#glyph-0-1" x="35" y="28.150391"/>
<use xlink:href="#glyph-0-2" x="38" y="28.150391"/>
<use xlink:href="#glyph-0-3" x="46" y="28.150391"/>
</g>
</svg>
